# xmcd
#
# Track frame offsets:
#	150
#	13995
#	28513
#	46002
#	89299
#	102710
#	116549
#	128729
#	152560
#	165396
#	176064
#	200820
#	220055
#	225909
#	246630
#
# Disc length: 3586 seconds
#
# Revision: 3
# Processed by: cddbd v1.4PL0 Copyright (c) Steve Scherf et al.
# Submitted via: EasyCDDAExtractor 5.1.0
#
DISCID=c60e000f
DTITLE=Van Morrison - The Essential Van Morrison
DYEAR=2001
DGENRE=Blues
TTITLE0=Brown Eyed Girl
TTITLE1=Chick-A-Boom
TTITLE2=Spainish Rose
TTITLE3=T.B. Sheets
TTITLE4=Goodbye Baby (Baby Goodbye)
TTITLE5=Ro Ro Rosey
TTITLE6=Midnight Special
TTITLE7=Madame George
TTITLE8=Send Your Mind
TTITLE9=I Love You (The Smile You Smile)
TTITLE10=The Back Room 
TTITLE11=Joe Harper Saturday Morning
TTITLE12=Twist And Shake
TTITLE13=Brown Eyed Girl (Dance Version)
TTITLE14=Spanish Rose (Dance Version)
EXTD=
EXTT0=
EXTT1=
EXTT2=
EXTT3=
EXTT4=
EXTT5=
EXTT6=
EXTT7=
EXTT8=
EXTT9=
EXTT10=
EXTT11=
EXTT12=
EXTT13=
EXTT14=
PLAYORDER=
